<svg height="43" viewBox="0 0 67 43" width="67" xmlns="http://www.w3.org/2000/svg"><g fill="none" transform="translate(1 1)"><g stroke="#00343d" stroke-linecap="round" stroke-linejoin="round" stroke-width="1.621622"><path d="m.57348501 38.8457832c15.91310879 1.1463895 27.19143269 1.7195843 33.83497149 1.7195843 6.6435389 0 16.8520657-.5731948 30.6255807-1.7195843v-3.1337525c-12.009375 1.1970766-22.2179019 1.7956149-30.6255807 1.7956149s-19.6860026-.5985383-33.83497149-1.7956149z"/><path d="m5.70973395 35.9834759 2.28363598-30.64451421h50.06160267l2.4027766 30.64451421"/><path d="m22.9239443 5.03386892 10.103769-4.3227407 9.7556851 4.3227407"/></g><path d="m9.34384502 16.5850112 4.62652028 12.5411569 4.7131387-12.5411569 4.8094172 12.5411569 4.7182908-12.5411569 4.8519214 12.5411569 4.6455184-12.5411569 4.7485589 12.5411569 4.6648385-12.5411569 4.9079497 12.5411569 4.5972182-12.5411569-4.5972182-3.2550778-4.9079497 2.6678632-4.6648385-2.6678632-4.7485589 2.6678632-4.6455184-2.6678632-4.8519214 2.6678632-4.7182908-2.6678632-4.8094172 2.6678632-4.7131387-2.6678632z" fill="#0bd8a2"/><path d="m9.34384502 16.5850112 4.62652028 12.5411569 4.7131387-12.5411569 4.8094172 12.5411569 4.7182908-12.5411569 4.8519214 12.5411569 4.6455184-12.5411569 4.7485589 12.5411569 4.6648385-12.5411569 4.9079497 12.5411569 4.5972182-12.5411569-4.5972182-3.2550778-4.9079497 2.6678632-4.6648385-2.6678632-4.7485589 2.6678632-4.6455184-2.6678632-4.8519214 2.6678632-4.7182908-2.6678632-4.8094172 2.6678632-4.7131387-2.6678632z" stroke="#00343d" stroke-linecap="round" stroke-linejoin="round" stroke-width="1.621622"/></g></svg>