<svg height="34" viewBox="0 0 62 34" width="62" xmlns="http://www.w3.org/2000/svg"><g fill="none" fill-rule="evenodd" transform="translate(1)"><path d="m20.6603706 26.9183509c2.3969846-5.133973 5.9153488-7.7009596 10.5550924-7.7009596 6.9596156 0 12.2718179 8.3220746 15.070384 9.5881242 1.8657108.844033 4.6537967 1.0599736 8.3642578.6478218-3.1640625 1.9801573-5.7345655 2.8546868-7.7115092 2.6235883-2.9654154-.3466479-7.2899199-3.0865305-9.5665014-4.8245585-2.2765816-1.738028-4.7798567-3.7602588-7.375667-3.526842-1.7305402.1556112-4.842559 1.2198864-9.3360566 3.1928258z" fill="#0bd8a2"/><g fill-rule="nonzero" stroke="#00343d" stroke-linecap="round" stroke-linejoin="round" stroke-width="1.72"><path d="m.265816 32.170219h19.495998"/><path d="m39.778011 32.170219h19.495998"/><path d="m9.30390149 31.5884425c6.79365951 0 13.90279641-7.8629174 20.63393191-7.8629174 6.7311357 0 8.974133 7.8629174 18.5370618 7.8629174s11.1431736-9.883704 6.7050543-15.5621602-11.9977849-15.03885023-25.6489713-15.03885023c-13.6511865 0-22.08206909 8.87533967-26.20256738 15.03885023-4.12049828 6.1635105-.81816882 15.5621602 5.97549067 15.5621602z"/><path d="m20.6089225 26.6695703c4.8647103-7.8168921 10.7016958-9.534884 17.5109565-5.1539759"/></g></g></svg>