<svg height="50" viewBox="0 0 57 50" width="57" xmlns="http://www.w3.org/2000/svg"><g fill="none" transform="translate(1.972973 1.216216)"><g stroke="#00343d" stroke-linecap="round" stroke-linejoin="round" stroke-width="1.621622"><path d="m.665118 46.778927h52.060019"/><path d="m4.60462416 46.7728568c4.59740991-4.0945242 10.14340514-6.1417863 16.63798564-6.1417863s12.0405757 2.0472621 16.6379856 6.1417863"/><path d="m33.4404033 43.4076753c1.5820312-.8921031 3.9077456-1.3381546 6.9771432-1.3381546 3.0693975 0 5.7574957 1.4987155 8.0642947 4.4961465"/><path d="m35.727143 42.46912v-22.463445"/></g><path d="m18.1434755 20.0002639c2.4992962-1.0230152 4.6810776-.5423001 6.5453442 1.4421453 1.8644425-2.0944626 4.8251425-2.9956714 7.3053473 0 1.8905722-2.4646326 5.2572055-2.5167599 7.2678685.1999314.9863281-2.664564 5.5107158-3.0480627 7.3927101-.1999314.8077755-2.4646326 4.6431587-3.3928948 6.3656039-1.4421453 1.7224451 1.9507496-2.5686893-15.90002108-16.9667177-15.90002108-9.5986856 0-15.5687377 5.30000704-17.9101563 15.90002108z" fill="#0bd8a2"/><g stroke="#00343d" stroke-linecap="round" stroke-linejoin="round" stroke-width="1.621622"><path d="m18.1434755 20.0002639c2.4992962-1.0230152 4.6810776-.5423001 6.5453442 1.4421453 1.8644425-2.0944626 4.8251425-2.9956714 7.3053473 0 1.8905722-2.4646326 5.2572055-2.5167599 7.2678685.1999314.9863281-2.664564 5.5107158-3.0480627 7.3927101-.1999314.8077755-2.4646326 4.6431587-3.3928948 6.3656039-1.4421453 1.7224451 1.9507496-2.5686893-15.90002108-16.9667177-15.90002108-9.5986856 0-15.5687377 5.30000704-17.9101563 15.90002108z"/><path d="m35.711043 3.749868v-1.817066"/><path d="m24.708219 20.9890995c1.0106102-9.7915787 4.6003132-15.40654918 10.7691089-16.84491137"/><path d="m32.0899757 21.5349187c.1200908-9.2620355 1.2610853-15.01777167 3.4229835-17.26720861"/><path d="m39.2472551 21.4492715c-.2369264-9.2961711-1.2856754-15.06857928-3.1462469-17.31722441"/><path d="m46.706345 21.0024282c-1.1866554-9.465266-4.7311374-15.12963646-10.6334459-16.99311127"/><circle cx="10.810811" cy="5.405405" r="5.405405"/><path d="m10.941723 34.3198374h20.1588893v3.745909h-22.01963679l-5.83694046-8.4035842 2.68871411-1.8335621z"/><path d="m6.7611117 28.6016681 1.78143475-.5993983 2.82741235 3.7785051-.3322952 2.1704762"/><path d="m10.810811 38.232818v3.803315"/><path d="m13.243243 38.232818v3.154297"/><path d="m26.216216 38.292467v2.788614"/><path d="m28.378378 38.292467v3.154165"/></g></g></svg>
