<svg height="55" viewBox="0 0 38 55" width="38" xmlns="http://www.w3.org/2000/svg"><g fill="none" transform="translate(.621622 1.054054)"><path d="m35.9396115 51.3679793h-25.4067251v-3.3226879l-3.74815245-4.0646115 7.35404345-9.1752006 4.815245 2.2455659h10.19716l5.4019743 6.9296347-1.9763514 1.8691934z" stroke="#00343d" stroke-linecap="round" stroke-linejoin="round" stroke-width="1.621622"/><path d="m10.6033573 48.0115076 3.9481091-5.0243817m2.7396672-3.4865132 1.8197986-2.315884" stroke="#00343d" stroke-linecap="round" stroke-linejoin="round" stroke-width="1.621622"/><path d="m2.81593117 7.69188133-.70629223-5.8453864 2.23184121 1.33868243 1.66649071-2.89194467 1.28431166 2.54961993 2.21072635-.99635769-.63634924 5.8453864" fill="#0bd8a2"/><g stroke="#00343d" stroke-linecap="round" stroke-linejoin="round" stroke-width="1.621622"><path d="m18.920107 51.319811 10.381123-13.988202"/><path d="m30.871153 47.409206 2.009344-1.831912"/><path d="m28.4272065 37.1150496c0-4.5725119 0-7.9901728 0-10.2529825 0-3.3942145-2.4194996-5.7349292-5.8273068-5.7349292s-5.2441406 2.5434174-5.2441406 5.7349292v9.3702492"/><path d="m28.4418549 27.9473712c-1.0504645-2.3206116-2.8790118-3.4809174-5.4856419-3.4809174-2.60663 0-4.4519592 1.1603058-5.5359876 3.4809174"/><path d="m19.391628 28.8524071 3.2861328-.7085357 3.351061.7085357"/><path d="m22.795212 30.413851v-2.223659"/><path d="m17.313265 25.098316-3.268713-.886164"/><path d="m31.36732 25.098316-3.268714-.886164" transform="matrix(-1 0 0 1 59.465926 0)"/><path d="m17.909496 23.264754-3.855442-2.724213"/><path d="m31.321923 23.387748-3.937263-2.705606" transform="matrix(-1 0 0 1 58.706582 0)"/><path d="m19.742927 21.73617-2.957929-4.838471"/><path d="m28.645086 21.729703-2.94394-4.892182" transform="matrix(-1 0 0 1 54.34623 0)"/><path d="m22.858293 21.063002v-6.822213"/><path d="m14.1250528 34.8358319-5.64769849-18.910209v-5.435758h2.23025759v-2.62404987h-9.69145903v2.62404987h2.02412373v2.9558171c0 1.0721073 1.35055955 2.7574694 2.77462522 2.7574694.19355292 1.1710832 1.28994228 9.4352213 3.28916807 24.7924145"/><path d="m2.81593117 7.69188133-.70629223-5.8453864 2.23184121 1.33868243 1.66649071-2.89194467 1.28431166 2.54961993 2.21072635-.99635769-.63634924 5.8453864"/><path d="m5.883063 16.206055h2.544473"/><path d="m3.205039 10.504447h5.373469"/><path d="m17.4036634 30.3130279c.7932151 3.096143 2.5675676 4.6442145 5.3230575 4.6442145"/></g></g></svg>