<svg height="45" viewBox="0 0 73 45" width="73" xmlns="http://www.w3.org/2000/svg"><g fill="none" transform="translate(1.405405 .459459)"><g stroke="#00343d"><path d="m4.62847076 38.2883167c.74993841.4743465 1.51159997.7115198 2.28498469.7115198 1.16007707 0 2.2286278-1.4230397 3.74460255-1.4230397 1.5159747 0 2.6364218 1.4230397 4.1139674 1.4230397 1.4775457 0 2.0125974-1.4230397 4.0450869-1.4230397s2.077004 1.4230397 4.0886626 1.4230397 1.8972779-1.4230397 3.9585357-1.4230397 2.1784884 1.4230397 4.2850111 1.4230397c2.1065226 0 2.1382045-1.4230397 4.1417599-1.4230397s1.8941684 1.4230397 3.8736143 1.4230397c1.979446 0 2.0016528-1.4230397 4.0434571-1.4230397 2.0418042 0 2.0809158 1.4230397 4.1234032 1.4230397s2.0431289-1.4230397 4.0468882-1.4230397 1.9327626 1.4230397 3.968486 1.4230397 2.3910935-1.4230397 4.0441433-1.4230397 2.5955052 1.4230397 3.837244 1.4230397c.8278258 0 1.5601795-.2371733 2.197061-.7115198" stroke-linecap="round" stroke-linejoin="round" stroke-width="1.621622"/><path d="m4.62847076 42.4731467c.74993841.4743465 1.51159997.7115198 2.28498469.7115198 1.16007707 0 2.2286278-1.4230397 3.74460255-1.4230397 1.5159747 0 2.6364218 1.4230397 4.1139674 1.4230397 1.4775457 0 2.0125974-1.4230397 4.0450869-1.4230397s2.077004 1.4230397 4.0886626 1.4230397 1.8972779-1.4230397 3.9585357-1.4230397 2.1784884 1.4230397 4.2850111 1.4230397c2.1065226 0 2.1382045-1.4230397 4.1417599-1.4230397s1.8941684 1.4230397 3.8736143 1.4230397c1.979446 0 2.0016528-1.4230397 4.0434571-1.4230397 2.0418042 0 2.0809158 1.4230397 4.1234032 1.4230397s2.0431289-1.4230397 4.0468882-1.4230397 1.9327626 1.4230397 3.968486 1.4230397 2.3910935-1.4230397 4.0441433-1.4230397 2.5955052 1.4230397 3.837244 1.4230397c.8278258 0 1.5601795-.2371733 2.197061-.7115198" stroke-linecap="round" stroke-linejoin="round" stroke-width="1.621622"/><path d="m.64094172 21.718171h15.78636378m2.7542823 0h31.5505965m3.0446448 0h15.4594594" stroke-linecap="round" stroke-linejoin="round" stroke-width="1.621622"/><path d="m.69137986 24.3546344h15.69500894m2.9417098 0h31.5567726m2.7643185 0h15.6310178" stroke-linecap="round" stroke-linejoin="round" stroke-width="1.621622"/></g><path d="m16.5025338 33.4081435v-29.90835465h2.6694468v29.90835465" fill="#0bd8a2"/><path d="m50.9349662 33.4081435v-29.90835465h2.6694468v29.90835465" fill="#0bd8a2"/><g stroke="#00343d" stroke-width="1.621622"><path d="m.44433594 19.0338587c8.44638584-.2649575 13.80009066-4.4992825 16.06111436-12.70297515" stroke-linecap="round"/><path d="m19.2104096 6.4679599c2.8762317 8.5182587 8.1776112 12.777388 15.9041385 12.777388 7.7265274 0 12.9782693-4.2591293 15.755226-12.777388" stroke-linecap="round"/><path d="m4.938477 21.568835v-2.726713"/><path d="m9.06085 21.652783v-4.549742"/><path d="m13.510043 21.481991v-8.660841"/><path d="m22.339461 21.565599v-8.667992"/><path d="m26.477961 21.533416v-4.450639"/><path d="m30.657807 21.405705v-2.517607"/><path d="m35.134964 21.568324v-2.250947"/><path d="m39.449654 21.588417v-2.41663"/><path d="m43.649572 21.555382v-4.526925"/><path d="m48.039749 21.424436v-8.690299"/><path d="m53.741145 6.43339282c2.806579 8.39996998 7.7715899 12.59995508 14.8950327 12.59995508" stroke-linecap="round"/><path d="m65.223369 21.599996v-2.81611"/><path d="m60.970096 21.564577v-4.594015"/><path d="m56.720254 21.72345v-8.748706"/><g stroke-linecap="round" stroke-linejoin="round"><path d="m15.4594595 37.9938154v-4.5151755h4.7511349v3.9059095"/><path d="m17.838287 3.450918v-2.559666"/><path d="m49.8918919 37.9938154v-4.5151755h4.7511349v5.1854022"/><path d="m16.5025338 33.4081435v-29.90835465h2.6694468v29.90835465"/><path d="m50.9349662 33.4081435v-29.90835465h2.6694468v29.90835465"/><path d="m52.270719 3.450918v-2.559666"/></g></g></g></svg>
